{
  "accessors": [
    {
      "bufferView": 2,
      "componentType": 5126,
      "count": 11437,
      "max": [
        35.209796905517578,
        57.825851440429688,
        3.1911792755126953
      ],
      "min": [
        -36.090816497802734,
        -34.5048828125,
        -5.4104061126708984
      ],
      "type": "VEC3"
    },
    {
      "bufferView": 2,
      "byteOffset": 137244,
      "componentType": 5126,
      "count": 11437,
      "max": [
        0.99999850988388062,
        1,
        0.99999994039535522
      ],
      "min": [
        -0.99999850988388062,
        -1,
        -0.99999994039535522
      ],
      "type": "VEC3"
    },
    {
      "bufferView": 3,
      "componentType": 5126,
      "count": 11437,
      "max": [
        0.99986344575881958,
        1,
        1,
        1
      ],
      "min": [
        -0.99986344575881958,
        -0.99999982118606567,
        -1,
        -1
      ],
      "type": "VEC4"
    },
    {
      "bufferView": 1,
      "componentType": 5126,
      "count": 11437,
      "max": [
        0.99476921558380127,
        0.97694122791290283
      ],
      "min": [
        0.010372694581747055,
        0.016518581658601761
      ],
      "type": "VEC2"
    },
    {
      "bufferView": 0,
      "componentType": 5125,
      "count": 35076,
      "max": [
        11436
      ],
      "min": [
        0
      ],
      "type": "SCALAR"
    },
    {
      "bufferView": 2,
      "byteOffset": 274488,
      "componentType": 5126,
      "count": 2018,
      "max": [
        22.878873825073242,
        -2.3441438674926758,
        -30.717046737670898
      ],
      "min": [
        4.4257116317749023,
        -10.023603439331055,
        -33.352264404296875
      ],
      "type": "VEC3"
    },
    {
      "bufferView": 2,
      "byteOffset": 298704,
      "componentType": 5126,
      "count": 2018,
      "max": [
        1,
        1,
        1
      ],
      "min": [
        -1,
        -1,
        -1
      ],
      "type": "VEC3"
    },
    {
      "bufferView": 3,
      "byteOffset": 182992,
      "componentType": 5126,
      "count": 2018,
      "max": [
        1,
        1,
        1,
        1
      ],
      "min": [
        -1,
        -1,
        -1,
        -1
      ],
      "type": "VEC4"
    },
    {
      "bufferView": 1,
      "byteOffset": 91496,
      "componentType": 5126,
      "count": 2018,
      "max": [
        0.98863470554351807,
        0.97537273168563843
      ],
      "min": [
        0.024829372763633728,
        0.016147708520293236
      ],
      "type": "VEC2"
    },
    {
      "bufferView": 0,
      "byteOffset": 140304,
      "componentType": 5125,
      "count": 3696,
      "max": [
        2017
      ],
      "min": [
        0
      ],
      "type": "SCALAR"
    }
  ],
  "asset": {
    "extras": {
      "author": "SKConcepts (https://sketchfab.com/SKConcepts)",
      "license": "CC-BY-NC-4.0 (http://creativecommons.org/licenses/by-nc/4.0/)",
      "source": "https://sketchfab.com/models/81df395b295643ea85c13b4d085a7dd7",
      "title": "Spaceship - Evil (Gravity)"
    },
    "generator": "Sketchfab-3.19.5",
    "version": "2.0"
  },
  "bufferViews": [
    {
      "buffer": 0,
      "byteLength": 155088,
      "byteOffset": 0,
      "name": "floatBufferViews",
      "target": 34963
    },
    {
      "buffer": 0,
      "byteLength": 107640,
      "byteOffset": 155088,
      "byteStride": 8,
      "name": "floatBufferViews",
      "target": 34962
    },
    {
      "buffer": 0,
      "byteLength": 322920,
      "byteOffset": 262728,
      "byteStride": 12,
      "name": "floatBufferViews",
      "target": 34962
    },
    {
      "buffer": 0,
      "byteLength": 215280,
      "byteOffset": 585648,
      "byteStride": 16,
      "name": "floatBufferViews",
      "target": 34962
    }
  ],
  "buffers": [
    {
      "byteLength": 800928,
      "uri": "scene.bin"
    }
  ],
  "images": [
    {
      "uri": "textures/Engine_emissive.png"
    },
    {
      "uri": "textures/Engine_metallicRoughness.png"
    },
    {
      "uri": "textures/Engine_normal.png"
    },
    {
      "uri": "textures/Engine_baseColor.png"
    },
    {
      "uri": "textures/ship_emissive.png"
    },
    {
      "uri": "textures/ship_metallicRoughness.png"
    },
    {
      "uri": "textures/ship_normal.png"
    },
    {
      "uri": "textures/ship_baseColor.png"
    }
  ],
  "materials": [
    {
      "doubleSided": true,
      "emissiveFactor": [
        1,
        1,
        1
      ],
      "emissiveTexture": {
        "index": 4,
        "texCoord": 0
      },
      "name": "ship",
      "normalTexture": {
        "index": 6,
        "scale": 1,
        "texCoord": 0
      },
      "occlusionTexture": {
        "index": 5,
        "strength": 1,
        "texCoord": 0
      },
      "pbrMetallicRoughness": {
        "baseColorFactor": [
          1,
          1,
          1,
          1
        ],
        "baseColorTexture": {
          "index": 7,
          "texCoord": 0
        },
        "metallicFactor": 1,
        "metallicRoughnessTexture": {
          "index": 5,
          "texCoord": 0
        },
        "roughnessFactor": 0
      }
    },
    {
      "doubleSided": true,
      "emissiveFactor": [
        1,
        1,
        1
      ],
      "emissiveTexture": {
        "index": 0,
        "texCoord": 0
      },
      "name": "Engine",
      "normalTexture": {
        "index": 2,
        "scale": 1,
        "texCoord": 0
      },
      "occlusionTexture": {
        "index": 1,
        "strength": 1,
        "texCoord": 0
      },
      "pbrMetallicRoughness": {
        "baseColorFactor": [
          1,
          1,
          1,
          1
        ],
        "baseColorTexture": {
          "index": 3,
          "texCoord": 0
        },
        "metallicFactor": 1,
        "metallicRoughnessTexture": {
          "index": 1,
          "texCoord": 0
        },
        "roughnessFactor": 0
      }
    }
  ],
  "meshes": [
    {
      "name": "1_ship_0",
      "primitives": [
        {
          "attributes": {
            "NORMAL": 1,
            "POSITION": 0,
            "TANGENT": 2,
            "TEXCOORD_0": 3
          },
          "indices": 4,
          "material": 0,
          "mode": 4
        }
      ]
    },
    {
      "name": "2_Engine_0",
      "primitives": [
        {
          "attributes": {
            "NORMAL": 6,
            "POSITION": 5,
            "TANGENT": 7,
            "TEXCOORD_0": 8
          },
          "indices": 9,
          "material": 1,
          "mode": 4
        }
      ]
    }
  ],
  "nodes": [
    {
      "children": [
        1
      ],
      "name": "RootNode (gltf orientation matrix)",
      "rotation": [
        -0.70710678118654746,
        -0,
        -0,
        0.70710678118654757
      ]
    },
    {
      "children": [
        2
      ],
      "name": "RootNode (model correction matrix)"
    },
    {
      "children": [
        3
      ],
      "matrix": [
        1,
        0,
        0,
        0,
        0,
        0,
        1,
        0,
        0,
        -1,
        0,
        0,
        0,
        0,
        0,
        1
      ],
      "name": "72d9965ffc3240a09791c42695720877.fbx"
    },
    {
      "children": [
        4,
        7
      ],
      "name": "RootNode"
    },
    {
      "children": [
        5
      ],
      "matrix": [
        1,
        0,
        0,
        0,
        0,
        2.2204460492503131e-16,
        -1,
        0,
        0,
        1,
        2.2204460492503131e-16,
        0,
        0,
        0,
        0,
        1
      ],
      "name": "1"
    },
    {
      "children": [
        6
      ],
      "matrix": [
        1,
        0,
        -0,
        0,
        0,
        1,
        0,
        0,
        0,
        0,
        1,
        0,
        0.44050979614257812,
        -11.660484313964844,
        1.1096134185791016,
        1
      ],
      "name": ""
    },
    {
      "mesh": 0,
      "name": "1_ship_0"
    },
    {
      "children": [
        8
      ],
      "matrix": [
        1,
        0,
        0,
        0,
        0,
        0.99999999999998668,
        1.6292068494294582e-07,
        0,
        0,
        -1.6292068494294582e-07,
        0.99999999999998668,
        0,
        -7.4780001640319824,
        0,
        -32.034656524658203,
        1
      ],
      "name": "2"
    },
    {
      "children": [
        9
      ],
      "matrix": [
        1,
        0,
        -0,
        0,
        0,
        1,
        0,
        0,
        0,
        0,
        1,
        0,
        -6.1740455627441406,
        6.1838736534118652,
        32.034656524658203,
        1
      ],
      "name": ""
    },
    {
      "mesh": 1,
      "name": "2_Engine_0"
    }
  ],
  "samplers": [
    {
      "magFilter": 9729,
      "minFilter": 9987,
      "wrapS": 10497,
      "wrapT": 10497
    }
  ],
  "scene": 0,
  "scenes": [
    {
      "name": "OSG_Scene",
      "nodes": [
        0
      ]
    }
  ],
  "textures": [
    {
      "sampler": 0,
      "source": 0
    },
    {
      "sampler": 0,
      "source": 1
    },
    {
      "sampler": 0,
      "source": 2
    },
    {
      "sampler": 0,
      "source": 3
    },
    {
      "sampler": 0,
      "source": 4
    },
    {
      "sampler": 0,
      "source": 5
    },
    {
      "sampler": 0,
      "source": 6
    },
    {
      "sampler": 0,
      "source": 7
    }
  ]
}

